<?xml version="1.0" encoding="UTF-8" standalone="no"?>
<!-- Created with Inkscape (http://www.inkscape.org/) -->

<svg
   version="1.1"
   id="svg2"
   width="49.635155"
   height="58.948181"
   viewBox="0 0 49.635155 58.948181"
   sodipodi:docname="logo.svg"
   inkscape:version="1.3.2 (091e20ef0f, 2023-11-25)"
   inkscape:export-filename="logo.png"
   inkscape:export-xdpi="976.72711"
   inkscape:export-ydpi="976.72711"
   xmlns:inkscape="http://www.inkscape.org/namespaces/inkscape"
   xmlns:sodipodi="http://sodipodi.sourceforge.net/DTD/sodipodi-0.dtd"
   xmlns="http://www.w3.org/2000/svg"
   xmlns:svg="http://www.w3.org/2000/svg">
  <defs
     id="defs1" />
  <style
     id="style1">
#background { 
    fill: white;
}
.angle {
   stroke: black;
}
.border {
   stroke: black;
}
.single-tick-background {
   stroke: none;
   fill: #f87171;
}
.double-tick-background {
   stroke: none;
   fill: #86efac;
}
</style>
  <sodipodi:namedview
     id="namedview4"
     pagecolor="#ffffff"
     bordercolor="#000000"
     borderopacity="0.25"
     inkscape:showpageshadow="2"
     inkscape:pageopacity="0.0"
     inkscape:pagecheckerboard="0"
     inkscape:deskcolor="#d1d1d1"
     showgrid="false"
     inkscape:zoom="16"
     inkscape:cx="23.90625"
     inkscape:cy="28.09375"
     inkscape:window-width="2560"
     inkscape:window-height="1403"
     inkscape:window-x="0"
     inkscape:window-y="0"
     inkscape:window-maximized="1"
     inkscape:current-layer="g10">
    <inkscape:page
       x="0"
       y="0"
       id="page8"
       width="49.635155"
       height="58.948181"
       margin="0"
       bleed="0" />
  </sodipodi:namedview>
  <g
     id="g10"
     inkscape:groupmode="layer"
     inkscape:label="Page 1"
     transform="matrix(1.3333333,0,0,-1.3333333,-3.9930894,62.943016)">
    <path
       d="M 21.601601,3.3946094 3.3933105,25.09408 C 9.4425255,32.333511 15.53125,39.574522 21.601601,46.80878 27.677355,39.598492 33.753606,32.342049 39.822691,25.1093 33.492667,17.532117 27.037626,9.8551358 21.601601,3.3946094 Z"
       style="stroke-dasharray:none;stroke-miterlimit:10;stroke-linejoin:round;stroke-linecap:butt;stroke-width:0.79701;stroke:none;fill-rule:nonzero;fill-opacity:1;display:inline;"
       id="background"
       sodipodi:nodetypes="ccccc" />
    <g
       id="top-angle"
       transform="matrix(1.492286,0,0,1.492286,21.608,-17.099716)"
       class="angle"
       inkscape:label="top-angle">
      <path
         class="double-tick-background"
         d="m -2.3908073,48.05115 -5.3912018,-6.42543 c 3.1177022,-2.616087 7.6658259,-2.616087 10.783528,0 z"
         style="fill-rule:nonzero;stroke:none;stroke-width:1.4796"
         id="top-angle-background"
         transform="matrix(0.67011283,0,0,0.67011283,1.6140156,10.767594)"
         inkscape:label="background" />
      <path
         d="m -3.64368,38.64598 c 2.10712,-1.7681 5.181,-1.7681 7.28812,0"
         style="fill:none;stroke-width:0.3985;stroke-linecap:butt;stroke-linejoin:miter;stroke-miterlimit:10;stroke-dasharray:none;stroke-opacity:1"
         id="top-angle-arc"
         inkscape:label="arc" />
      <path
         d="M -0.47015,39.41676 -0.65009,35.2882"
         style="fill:none;stroke-width:0.3985;stroke-linecap:butt;stroke-linejoin:miter;stroke-miterlimit:10;stroke-dasharray:none;stroke-opacity:1"
         id="top-angle-tick2"
         inkscape:label="tick2" />
      <path
         d="M 0.47015,39.41676 0.65009,35.2882"
         style="fill:none;stroke-width:0.3985;stroke-linecap:butt;stroke-linejoin:miter;stroke-miterlimit:10;stroke-dasharray:none;stroke-opacity:1"
         id="top-angle-tick1"
         inkscape:label="tick1" />
    </g>
    <g
       id="bottom-angle"
       transform="matrix(1.492286,0,0,1.492286,21.608,2.5877843)"
       class="angle"
       inkscape:label="bottom-angle">
      <path
         class="double-tick-background"
         d="m 21.649401,3.8510251 5.059777,6.0304257 c -2.926041,2.4552492 -7.194569,2.4552492 -10.12061,0 z"
         style="fill-rule:nonzero;stroke:none;stroke-width:1.38864"
         id="bottom-angle-background"
         transform="matrix(0.67011283,0,0,0.67011283,-14.479798,-1.7341075)"
         inkscape:label="background" />
      <path
         d="m 3.64368,4.78342 c -2.10712,1.76809 -5.181,1.76809 -7.28812,0"
         style="fill:none;stroke-width:0.3985;stroke-linecap:butt;stroke-linejoin:miter;stroke-miterlimit:10;stroke-dasharray:none;stroke-opacity:1"
         id="bottom-angle-arc"
         inkscape:label="arc" />
      <path
         d="M 0.47015,4.01263 0.65009,8.1412"
         style="fill:none;stroke-width:0.3985;stroke-linecap:butt;stroke-linejoin:miter;stroke-miterlimit:10;stroke-dasharray:none;stroke-opacity:1"
         id="bottom-angle-tick2"
         inkscape:label="tick2" />
      <path
         d="M -0.47015,4.01263 -0.65009,8.1412"
         style="fill:none;stroke-width:0.3985;stroke-linecap:butt;stroke-linejoin:miter;stroke-miterlimit:10;stroke-dasharray:none;stroke-opacity:1"
         id="bottom-angle-tick1"
         inkscape:label="tick1" />
    </g>
    <g
       id="right-angle"
       transform="matrix(1.492286,0,0,1.492286,13.5455,-7.3028409)"
       class="angle"
       inkscape:label="right-angle">
      <path
         class="single-tick-background"
         d="m 39.671413,25.052121 -5.059541,6.030141 c -2.154112,-1.807565 -3.180783,-4.627874 -2.692504,-7.39725 0.321288,-1.822214 1.275087,-3.474008 2.692504,-4.66331 z"
         style="fill-rule:nonzero;stroke:none;stroke-width:1.38857"
         id="right-angle-background"
         transform="matrix(0.67011283,0,0,0.67011283,-9.0770134,4.8937274)"
         inkscape:label="background" />
      <path
         d="m 14.20758,26.05737 c -1.55131,-1.30174 -2.29068,-3.33282 -1.93904,-5.32722 0.23138,-1.31229 0.91827,-2.50185 1.93904,-3.35834"
         style="fill:none;stroke-width:0.3985;stroke-linecap:butt;stroke-linejoin:miter;stroke-miterlimit:10;stroke-dasharray:none;stroke-opacity:1"
         id="right-angle-arc"
         inkscape:label="arc" />
      <path
         d="M 14.24823,21.71469 H 10.11534"
         style="fill:none;stroke-width:0.3985;stroke-linecap:butt;stroke-linejoin:miter;stroke-miterlimit:10;stroke-dasharray:none;stroke-opacity:1"
         id="right-angle-tick"
         inkscape:label="tick" />
    </g>
    <g
       id="left-angle"
       transform="matrix(1.492286,0,0,1.492286,29.717375,-7.3028409)"
       class="angle"
       inkscape:label="left-angle">
      <path
         class="single-tick-background"
         d="m -12.01736,15.179083 3.390462,-4.040864 c 1.4434978,1.211281 2.1314829,3.101205 1.8042817,4.956981 -0.2153,1.221107 -0.854453,2.327977 -1.8042817,3.124961 z"
         style="fill-rule:nonzero;stroke:none;stroke-width:0.930503"
         id="left-angle-background"
         transform="translate(-5.434196,6.6278349)"
         inkscape:label="background" />
      <path
         d="m -14.20758,17.37202 c 1.55131,1.30175 2.29068,3.33283 1.93904,5.32721 -0.23138,1.31231 -0.91827,2.50185 -1.93904,3.35836"
         style="fill:none;stroke-width:0.3985;stroke-linecap:butt;stroke-linejoin:miter;stroke-miterlimit:10;stroke-dasharray:none;stroke-opacity:1"
         id="left-angle-arc"
         inkscape:label="arc" />
      <path
         d="m -14.24823,21.71469 h 4.13289"
         style="fill:none;stroke-width:0.3985;stroke-linecap:butt;stroke-linejoin:miter;stroke-miterlimit:10;stroke-dasharray:none;stroke-opacity:1"
         id="left-angle-tick"
         inkscape:label="tick" />
    </g>
    <path
       d="M 21.6016,3.39461 3.39331,25.09408 C 9.442524,32.333511 15.531249,39.574522 21.6016,46.80878 27.677354,39.598492 33.753605,32.342049 39.82269,25.1093 33.492666,17.532117 27.037625,9.8551364 21.6016,3.39461 Z"
       style="fill:none;fill-opacity:1;fill-rule:nonzero;stroke-width:0.79701;stroke-linecap:butt;stroke-linejoin:round;stroke-miterlimit:10;stroke-dasharray:none;stroke-opacity:1"
       id="outline"
       class="border"
       sodipodi:nodetypes="ccccc"
       inkscape:label="outline" />
  </g>
</svg>
